<mxfile host="app.diagrams.net" modified="2024-01-11T22:57:20.536Z" agent="Mozilla/5.0 (Macintosh; Intel Mac OS X 10_15_7) AppleWebKit/537.36 (KHTML, like Gecko) Chrome/120.0.0.0 Safari/537.36" etag="PADxuQFSxkbeH9gDBLho" version="22.1.17" type="github">
  <diagram name="Page-1" id="6TCVS8-BXPdkpPdYdFL-">
    <mxGraphModel dx="1434" dy="761" grid="1" gridSize="10" guides="1" tooltips="1" connect="1" arrows="1" fold="1" page="1" pageScale="1" pageWidth="827" pageHeight="1169" math="0" shadow="0">
      <root>
        <mxCell id="0" />
        <mxCell id="1" parent="0" />
        <mxCell id="OfyXRZXU2H1tbkIielXs-1" value="Decaffeination" style="text;html=1;strokeColor=none;fillColor=none;align=center;verticalAlign=middle;whiteSpace=wrap;rounded=0;" vertex="1" parent="1">
          <mxGeometry x="180" y="380" width="100" height="40" as="geometry" />
        </mxCell>
        <mxCell id="OfyXRZXU2H1tbkIielXs-4" style="edgeStyle=orthogonalEdgeStyle;rounded=0;orthogonalLoop=1;jettySize=auto;html=1;" edge="1" parent="1" source="OfyXRZXU2H1tbkIielXs-2" target="OfyXRZXU2H1tbkIielXs-3">
          <mxGeometry relative="1" as="geometry" />
        </mxCell>
        <mxCell id="OfyXRZXU2H1tbkIielXs-2" value="solvent" style="text;html=1;strokeColor=none;fillColor=none;align=center;verticalAlign=middle;whiteSpace=wrap;rounded=0;" vertex="1" parent="1">
          <mxGeometry x="350" y="330" width="60" height="30" as="geometry" />
        </mxCell>
        <mxCell id="OfyXRZXU2H1tbkIielXs-3" value="is drawn out" style="text;html=1;strokeColor=none;fillColor=none;align=center;verticalAlign=middle;whiteSpace=wrap;rounded=0;" vertex="1" parent="1">
          <mxGeometry x="450" y="330" width="90" height="30" as="geometry" />
        </mxCell>
        <mxCell id="OfyXRZXU2H1tbkIielXs-5" value="The caffeine is then drawn out by the solvent" style="text;html=1;strokeColor=none;fillColor=none;align=center;verticalAlign=middle;whiteSpace=wrap;rounded=0;" vertex="1" parent="1">
          <mxGeometry x="365" y="280" width="260" height="30" as="geometry" />
        </mxCell>
      </root>
    </mxGraphModel>
  </diagram>
</mxfile>
